<?xml version="1.0" encoding="utf-8"?>
<!-- Generator: Adobe Illustrator 24.1.2, SVG Export Plug-In . SVG Version: 6.00 Build 0)  -->
<svg version="1.1" id="Layer_1" xmlns="http://www.w3.org/2000/svg" xmlns:xlink="http://www.w3.org/1999/xlink" x="0px" y="0px"
	 viewBox="0 0 100 100" style="enable-background:new 0 0 100 100;" xml:space="preserve">
<style type="text/css">
	.st0{fill:#C7CCCF;}
	.st1{fill:#EB001B;}
	.st2{fill:#F79E1B;}
	.st3{fill:#FF5F00;}
</style>
<g>
	<path class="st0" d="M66.1,38c1.7,0,3,1.4,3,3v18c0,1.7-1.4,3-3,3H34c-1.7,0-3-1.4-3-3V41c0-1.7,1.4-3,3-3H66.1 M66.1,37H34
		c-2.2,0-4,1.8-4,4v18c0,2.2,1.8,4,4,4h32c2.2,0,4-1.8,4-4V41C70.1,38.8,68.3,37,66.1,37L66.1,37z"/>
</g>
<g>
	<path class="st1" d="M44.1,59.5L44.1,59.5c-5.2,0-9.5-4.3-9.5-9.5l0,0c0-5.2,4.3-9.5,9.5-9.5l0,0c5.2,0,9.5,4.3,9.5,9.5l0,0
		C53.6,55.3,49.4,59.5,44.1,59.5z"/>
	<path class="st2" d="M55.7,59.5L55.7,59.5c-5.2,0-9.5-4.3-9.5-9.5l0,0c0-5.2,4.3-9.5,9.5-9.5l0,0c5.2,0,9.5,4.3,9.5,9.5l0,0
		C65.2,55.3,60.9,59.5,55.7,59.5z"/>
	<path class="st3" d="M46.2,50c0,3.1,1.5,5.8,3.7,7.5c2.3-1.7,3.7-4.5,3.7-7.5s-1.5-5.8-3.7-7.5C47.6,44.2,46.2,47,46.2,50z"/>
</g>
</svg>
