<svg width="48" height="28" viewBox="0 0 48 28" fill="none" xmlns="http://www.w3.org/2000/svg">
<path d="M23.6994 8.5H23.3994V22H23.6994V8.5Z" fill="#8DB9CA"/>
<path d="M36.2994 21.7H23.3994V22H36.2994V21.7Z" fill="#8DB9CA"/>
<path d="M36.2996 22H35.9996V10.1L32.6996 6.1H23.5996V5.8H32.7996V5.90001L36.2996 10V22Z" fill="#8DB9CA"/>
<path d="M36.1996 10.2H32.5996V6H32.8996V9.9H36.1996V10.2Z" fill="#8DB9CA"/>
<path d="M27.1994 10.2H25.6994L25.3994 11.1H24.8994L26.2994 7.5H26.6994L28.0994 11.1H27.5994L27.1994 10.2ZM25.8994 9.8H27.0994L26.4994 8.2L25.8994 9.8Z" fill="#8DB9CA"/>
<path d="M26.4998 15.2L25.7998 14.5L25.8998 14.3L26.4998 14.9L27.7998 13.6L27.9998 13.8L26.4998 15.2Z" fill="#8DB9CA"/>
<path d="M28.3 16.1H25V12.8H28.2V13.1H25.3V15.8H28.1V15.1H28.3V16.1Z" fill="#8DB9CA"/>
<path d="M26.4998 19.6L25.7998 18.8L25.8998 18.6L26.4998 19.2L27.7998 17.9L27.9998 18.1L26.4998 19.6Z" fill="#8DB9CA"/>
<path d="M34.2994 13.5H29.8994V13.8H34.2994V13.5Z" fill="#8DB9CA"/>
<path d="M34.1994 15H29.8994V15.3H34.1994V15Z" fill="#8DB9CA"/>
<path d="M34.2994 17.9H29.8994V18.2H34.2994V17.9Z" fill="#8DB9CA"/>
<path d="M34.1994 19.4H29.8994V19.7H34.1994V19.4Z" fill="#8DB9CA"/>
<path d="M29.8998 9.1H29.2998V9.4H29.8998V9.1Z" fill="#8DB9CA"/>
<path d="M29.1994 9.3H28.8994V10.3H29.1994V9.3Z" fill="#8DB9CA"/>
<path d="M29.9996 9.1H28.0996V9.4H29.9996V9.1Z" fill="#8DB9CA"/>
<path d="M29.1994 8.2H28.8994V9.59999H29.1994V8.2Z" fill="#8DB9CA"/>
<path d="M23.2998 7.3C23.2998 7.5 23.3998 7.6 23.5998 7.6C23.7998 7.6 23.8998 7.5 23.8998 7.3C23.8998 7.1 23.7998 7 23.5998 7C23.3998 7 23.2998 7.2 23.2998 7.3Z" fill="#8DB9CA"/>
<path d="M28.3 20.4H25V17.1H28.2V17.4H25.3V20.1H28.1V19.4H28.3V20.4Z" fill="#8DB9CA"/>
<path d="M12.8994 20.2C15.3994 20.2 17.9994 19.1 19.7994 17.3L19.4994 17C17.7994 18.7 15.2994 19.8 12.8994 19.8C7.79941 19.8 3.69941 15.7 3.69941 10.7C3.69941 8.4 4.69941 6.1 6.29941 4.4L5.99941 4.1C4.29941 5.9 3.39941 8.3 3.39941 10.7C3.39941 15.9 7.69941 20.2 12.8994 20.2Z" fill="#8DB9CA"/>
<path d="M12.8991 18.8C17.2991 18.8 20.7991 15.3 20.7991 10.9C20.7991 6.6 17.1991 3 12.8991 3C8.49911 3 4.9991 6.5 4.9991 10.9C4.8991 15.3 8.49911 18.8 12.8991 18.8ZM12.8991 3.3C17.0991 3.3 20.4991 6.7 20.4991 10.9C20.4991 15.1 17.0991 18.5 12.8991 18.5C8.69911 18.5 5.2991 15.1 5.2991 10.9C5.1991 6.7 8.59911 3.3 12.8991 3.3Z" fill="#8DB9CA"/>
<path d="M9.09941 6.1C9.39941 5.9 9.59941 5.7 9.89941 5.6L9.79941 5.4C9.49941 5.6 9.19941 5.8 8.89941 6L9.09941 6.1Z" fill="#8DB9CA"/>
<path d="M16.399 6L16.599 5.8C15.499 5 14.199 4.6 12.899 4.6C12.099 4.6 11.299 4.8 10.499 5.1L10.599 5.4C11.299 5.1 12.099 5 12.899 5C14.099 4.8 15.399 5.2 16.399 6Z" fill="#8DB9CA"/>
<path d="M14.3996 17.2H14.6996V15.9C14.6996 15.6 14.9996 15.3 15.2996 15.3H16.3996C16.8996 15.3 17.2996 14.9 17.2996 14.4C17.2996 13.9 16.8996 13.5 16.3996 13.5H13.7996C13.2996 13.5 12.8996 13 12.8996 12.4C12.8996 11.8 13.2996 11.3 13.7996 11.3H16.6996C17.0996 11.3 17.4996 10.9 17.4996 10.4C17.4996 9.90001 17.1996 9.5 16.6996 9.5H15.8996C15.3996 9.5 14.8996 9 14.8996 8.3C14.8996 7.6 15.2996 7.1 15.8996 7.1H18.8996V6.8H15.8996C15.1996 6.8 14.5996 7.5 14.5996 8.3C14.5996 9.1 15.1996 9.8 15.8996 9.8H16.6996C16.9996 9.8 17.1996 10.1 17.1996 10.4C17.1996 10.7 16.9996 11 16.6996 11H13.7996C13.0996 11 12.5996 11.6 12.5996 12.4C12.5996 13.2 13.0996 13.8 13.7996 13.8H16.3996C16.6996 13.8 16.9996 14.1 16.9996 14.4C16.9996 14.7 16.6996 15 16.3996 15H15.2996C14.7996 15 14.3996 15.4 14.3996 15.9V17.2Z" fill="#8DB9CA"/>
<path d="M10.1998 15.5H10.4998V14.7C10.4998 14 9.89981 13.4 9.19981 13.4H7.69981C7.29981 13.4 6.99981 13.1 6.99981 12.7C6.99981 12.3 7.29981 12 7.69981 12H9.0998C9.9998 12 10.7998 11.1 10.8998 10.2V10C10.7998 9.1 9.9998 8.5 9.0998 8.5H6.89981V8.8H9.0998C9.8998 8.8 10.4998 9.4 10.5998 10.2C10.4998 11 9.8998 11.8 9.0998 11.8H7.69981C7.19981 11.8 6.7998 12.2 6.7998 12.7C6.7998 13.2 7.19981 13.6 7.69981 13.6H9.19981C9.79981 13.6 10.1998 14.1 10.1998 14.6V15.5Z" fill="#8DB9CA"/>
<path d="M7.29941 5.5L7.59941 5.2L5.89942 3.5C5.79942 3.4 5.69941 3.4 5.59941 3.5C5.49941 3.6 5.49941 3.7 5.59941 3.8L7.29941 5.5Z" fill="#8DB9CA"/>
<path d="M20.499 18C20.599 17.9 20.599 17.8 20.499 17.7L18.799 16.1L18.499 16.4L20.199 18C20.299 18 20.399 18 20.499 18Z" fill="#8DB9CA"/>
<path d="M14.3 20.8H14V22.5H14.3V20.8Z" fill="#8DB9CA"/>
<path d="M11.5998 20.8H11.2998V22.5H11.5998V20.8Z" fill="#8DB9CA"/>
<path d="M16.3998 24.3H9.19981C9.29981 23.3 10.0998 22.6 11.0998 22.6H14.4998C15.4998 22.6 16.2998 23.4 16.3998 24.3ZM8.89981 24.6H16.5998V24.5C16.5998 23.3 15.5998 22.3 14.3998 22.3H10.9998C9.79981 22.3 8.7998 23.3 8.7998 24.5V24.6H8.89981Z" fill="#8DB9CA"/>
<path d="M1.49981 27.8H24.1998C24.2998 27.8 24.3998 27.7 24.3998 27.6V24.6C24.3998 24.5 24.2998 24.4 24.1998 24.4H1.49981C1.39981 24.4 1.2998 24.5 1.2998 24.6V27.6C1.2998 27.7 1.39981 27.8 1.49981 27.8ZM24.0998 27.4H1.5998V24.7H24.0998V27.4Z" fill="#8DB9CA"/>
<path d="M21.8996 24.5H21.5996V27.6H21.8996V24.5Z" fill="#8DB9CA"/>
<path d="M5.0998 24.5H4.7998V27.6H5.0998V24.5Z" fill="#8DB9CA"/>
<path d="M20.4992 24.5H20.1992V27.6H20.4992V24.5Z" fill="#8DB9CA"/>
<path d="M3.8 24.5H3.5V27.6H3.8V24.5Z" fill="#8DB9CA"/>
<path d="M8.89941 26.2H9.29941V25.9H8.89941V26.2ZM9.79941 26.2H10.1994V25.9H9.79941V26.2ZM10.5994 26.2H10.9994V25.9H10.5994V26.2ZM11.3994 26.2H11.7994V25.9H11.3994V26.2ZM12.1994 26.2H12.5994V25.9H12.1994V26.2ZM12.9994 26.2H13.3994V25.9H12.9994V26.2ZM13.7994 26.2H14.1994V25.9H13.7994V26.2ZM14.5994 26.2H14.9994V25.9H14.5994V26.2ZM15.3994 26.2H15.7994V25.9H15.3994V26.2Z" fill="#8DB9CA"/>
<path d="M45.7998 26.8H36.9998V26.4H45.4998V24.4C41.9998 24.2 39.9998 24.5 38.7998 24.9C37.5998 25.3 37.0998 25.8 37.0998 25.8L36.7998 25.6C36.8998 25.5 38.5998 23.6 45.5998 24.1H45.7998V26.8Z" fill="#8DB9CA"/>
<path d="M27.5 26.8H36.3V26.4H27.8V24.4C31.3 24.2 33.3 24.5 34.5 24.9C35.7 25.3 36.2 25.8 36.2 25.8L36.5 25.6C36.4 25.5 34.7 23.6 27.7 24.1H27.5V26.8Z" fill="#8DB9CA"/>
<path d="M35.7998 27.3H36.1998C36.1998 27 36.3998 26.7 36.6998 26.7C36.9998 26.7 37.1998 27 37.1998 27.3H37.5998C37.5998 26.8 37.1998 26.3 36.6998 26.3C36.1998 26.3 35.7998 26.7 35.7998 27.3Z" fill="#8DB9CA"/>
<path d="M26.3994 27.6H47.0994V26.3H46.1994V26.6H46.6994V27.3H26.6994V26.8H27.1994V26.4H26.3994V27.6Z" fill="#8DB9CA"/>
<path d="M4.89952 20.6L3.79952 21.1C3.69952 21.1 3.69952 21.2 3.59952 21.3L3.39952 22.4L2.59952 21.5C2.49952 21.4 2.39952 21.4 2.39952 21.4L1.19952 21.6L1.79952 20.6C1.79952 20.5 1.79952 20.4 1.79952 20.3L1.29952 19.3L2.39952 19.5C2.49952 19.5 2.59952 19.5 2.59952 19.4L3.39952 18.6L3.49952 19.8C3.49952 19.9 3.59952 20 3.59952 20L4.89952 20.6ZM3.49952 22.8C3.49952 22.8 3.59952 22.8 3.49952 22.8C3.69952 22.8 3.79952 22.7 3.79952 22.6L3.99952 21.4L5.09952 20.9C5.19952 20.9 5.29952 20.8 5.29952 20.7C5.29952 20.6 5.19952 20.5 5.19952 20.4L4.09952 19.8L3.99952 18.6C3.99952 18.5 3.89952 18.4 3.79952 18.4C3.69952 18.4 3.59952 18.4 3.49952 18.5L2.59952 19.3L1.39952 19C1.29952 19 1.19952 19 1.09952 19.1C0.999521 19.2 0.999521 19.3 1.09952 19.4L1.59952 20.5L0.999523 21.6C0.899523 21.7 0.999523 21.8 0.999523 21.9C1.09952 22 1.19952 22 1.29952 22L2.49952 21.8L3.29952 22.7C3.39952 22.7 3.39952 22.8 3.49952 22.8Z" fill="#8DB9CA"/>
<path d="M42.5992 19.1L41.7992 19.9C41.6992 20 41.6992 20.1 41.6992 20.1L41.8992 21.2L40.8992 20.7C40.7992 20.7 40.6992 20.7 40.5992 20.7L39.5992 21.2L39.7992 20.1C39.7992 20 39.7992 19.9 39.6992 19.9L38.8992 19.1L40.0992 18.9C40.1992 18.9 40.2992 18.8 40.2992 18.7L40.7992 17.7L41.2992 18.7C41.2992 18.8 41.3992 18.8 41.4992 18.9L42.5992 19.1ZM41.8992 21.6C41.9992 21.6 41.9992 21.6 42.0992 21.5C42.1992 21.4 42.1992 21.3 42.1992 21.2L41.9992 20.1L42.8992 19.3C42.9992 19.2 42.9992 19.1 42.9992 19C42.9992 18.9 42.8992 18.8 42.7992 18.8L41.5992 18.6L40.9992 17.5C40.9992 17.4 40.8992 17.3 40.7992 17.3C40.6992 17.3 40.5992 17.4 40.5992 17.5L40.0992 18.6L38.8992 18.8C38.7992 18.8 38.6992 18.9 38.6992 19C38.6992 19.1 38.6992 19.2 38.7992 19.3L39.6992 20.1L39.4992 21.3C39.4992 21.4 39.4992 21.5 39.5992 21.6C39.6992 21.7 39.7992 21.7 39.8992 21.6L40.9992 21L42.0992 21.6C41.7992 21.6 41.8992 21.6 41.8992 21.6Z" fill="#8DB9CA"/>
<path d="M21.9994 3.9L20.9994 4.4L21.1994 3.3C21.1994 3.2 21.1994 3.1 21.0994 3.1L20.2994 2.3L21.4994 2.1C21.5994 2.1 21.6994 2 21.6994 1.9L22.1994 0.900002L22.6994 1.9C22.6994 2 22.7994 2 22.8994 2.1L24.0994 2.3L23.2994 3.1C23.1994 3.2 23.1994 3.3 23.1994 3.3L23.3994 4.4L22.3994 3.9C22.0994 3.9 21.9994 3.9 21.9994 3.9ZM20.8994 4.8L22.0994 4.2L23.1994 4.8C23.2994 4.8 23.3994 4.8 23.4994 4.8C23.5994 4.7 23.5994 4.6 23.5994 4.5L23.3994 3.3L24.2994 2.5C24.3994 2.4 24.3994 2.3 24.3994 2.2C24.3994 2.1 24.2994 2 24.1994 2L22.9994 1.8L22.4994 0.700001C22.4994 0.600001 22.3994 0.5 22.2994 0.5C22.1994 0.5 22.0994 0.600001 22.0994 0.700001L21.5994 1.8L20.0994 2C19.9994 2 19.8994 2.1 19.8994 2.2C19.8994 2.3 19.8994 2.4 19.9994 2.5L20.8994 3.3L20.6994 4.5C20.6994 4.6 20.6994 4.7 20.8994 4.8C20.7994 4.8 20.7994 4.8 20.8994 4.8Z" fill="#8DB9CA"/>
</svg>
